<svg width="24" height="24" viewBox="0 0 24 24" fill="none" xmlns="http://www.w3.org/2000/svg">
<path d="M3 12C3 7.02943 7.02943 3 12 3C16.9706 3 21 7.02943 21 12V18.4286C21 18.7271 21 18.8764 20.9859 19.002C20.8684 20.0451 20.0451 20.8684 19.002 20.9859C18.8764 21 18.7271 21 18.4286 21H12C7.02943 21 3 16.9706 3 12Z" stroke="black"/>
<path d="M10.875 12.9375V12.5625M13.6875 12.9375V12.5625M12.1875 9.75V8.625" stroke="black" stroke-linecap="round"/>
<path d="M14.25 10.125H10.3125C9.38052 10.125 8.625 10.8805 8.625 11.8125V13.6875C8.625 14.6195 9.38052 15.375 10.3125 15.375H14.25C15.182 15.375 15.9375 14.6195 15.9375 13.6875V11.8125C15.9375 10.8805 15.182 10.125 14.25 10.125Z" stroke="black"/>
</svg>
