<svg width="24" height="24" viewBox="0 0 24 24" fill="none" xmlns="http://www.w3.org/2000/svg">
<path d="M3 12C3 7.02943 7.02943 3 12 3C16.9706 3 21 7.02943 21 12V18.4286C21 18.7271 21 18.8764 20.9859 19.002C20.8684 20.0451 20.0451 20.8684 19.002 20.9859C18.8764 21 18.7271 21 18.4286 21H12C7.02943 21 3 16.9706 3 12Z" stroke="black"/>
<path d="M8.625 14.8125C8.625 15.2267 8.96079 15.5625 9.375 15.5625C9.78921 15.5625 10.125 15.2267 10.125 14.8125C10.125 14.3983 9.78921 14.0625 9.375 14.0625C8.96079 14.0625 8.625 14.3983 8.625 14.8125Z" fill="black"/>
<path d="M12.4139 9.49279C12.5515 9.21432 12.9486 9.21432 13.0862 9.49279L13.2723 9.86942C13.5882 10.5086 14.0457 11.0673 14.61 11.503L14.9906 11.7969C15.1851 11.947 15.1851 12.2404 14.9906 12.3905L14.61 12.6844C14.0457 13.1201 13.5882 13.6788 13.2723 14.318L13.0862 14.6946C12.9486 14.9731 12.5515 14.9731 12.4139 14.6946L12.2277 14.318C11.9119 13.6788 11.4544 13.1201 10.8901 12.6844L10.5095 12.3905C10.315 12.2404 10.315 11.947 10.5095 11.7969L10.8901 11.503C11.4544 11.0673 11.9119 10.5086 12.2277 9.86942L12.4139 9.49279Z" stroke="black" stroke-linejoin="round"/>
</svg>
