<svg width="24" height="24" viewBox="0 0 24 24" fill="none" xmlns="http://www.w3.org/2000/svg">
<g clip-path="url(#clip0_5_888)">
<path d="M12 1.25061C12.6376 1.25061 13.259 1.43812 13.7881 1.78674L14.0088 1.94592L20.9307 7.38342H20.9316C21.4275 7.77237 21.84 8.25572 22.1465 8.80432L22.2715 9.04358C22.5865 9.69128 22.7502 10.4024 22.75 11.1227V17.9996C22.75 19.1806 22.3104 20.3168 21.5215 21.1881L21.3584 21.359C20.4676 22.2496 19.2596 22.7496 18 22.7496H15.75C15.7002 22.7496 15.6521 22.7349 15.6113 22.7076L15.5732 22.6764C15.5265 22.6295 15.5 22.5659 15.5 22.4996V17.2496C15.4999 16.3796 15.1759 15.5429 14.5947 14.901L14.4746 14.775C13.8593 14.1598 13.0387 13.7975 12.1738 13.7545L12 13.7496C11.13 13.7496 10.2933 14.0738 9.65137 14.6549L9.52539 14.775C8.86909 15.4313 8.50008 16.3215 8.5 17.2496V22.4996C8.5 22.5493 8.48509 22.5976 8.45801 22.6383L8.42676 22.6764C8.37987 22.7233 8.3163 22.7496 8.25 22.7496H6C4.81886 22.7496 3.6829 22.3102 2.81152 21.5211L2.6416 21.359C1.7508 20.4682 1.25 19.2594 1.25 17.9996V11.1227L1.25781 10.8531C1.28819 10.3151 1.40932 9.78592 1.61719 9.2887L1.72852 9.04358C2.00426 8.47667 2.38947 7.97066 2.86133 7.5553L3.06836 7.38342H3.06934L9.99121 1.94592C10.5639 1.49573 11.2715 1.25061 12 1.25061Z" stroke="black"/>
</g>
<defs>
<clipPath id="clip0_5_888">
<rect width="24" height="24" fill="white"/>
</clipPath>
</defs>
</svg>
